# xmcd
#
# Track frame offsets:
#	183
#	18630
#	35008
#	49020
#	63418
#	80178
#	99055
#	120648
#	134768
#	152638
#	167045
#	185743
#	202395
#
# Disc length: 2731 seconds
#
# Revision: 4
# Processed by: cddbd v1.5.2PL0 Copyright (c) Steve Scherf et al.
# Submitted via: audiograbber 1.83.01
#
DISCID=be0aa90d
DTITLE=Dawson, Julian - Fragile as china
DYEAR=1991
DGENRE=Rock
TTITLE0=Welcome to London Town
TTITLE1=How can I sleep without you (LP mix)
TTITLE2=Always there
TTITLE3=Fragile as china
TTITLE4=Sorry
TTITLE5=Where do gurus go
TTITLE6=We've been through fire
TTITLE7=Power of a kiss
TTITLE8=Stone deaf dumb and blind
TTITLE9=Love of a kind
TTITLE10=Crazy weather
TTITLE11=Lost without your loving
TTITLE12=I believe (my number's coming)
EXTD=
EXTT0=
EXTT1=
EXTT2=
EXTT3=
EXTT4=
EXTT5=
EXTT6=
EXTT7=
EXTT8=
EXTT9=
EXTT10=
EXTT11=
EXTT12=
PLAYORDER=
